<svg width="64" height="64" viewBox="0 0 64 64" fill="none" xmlns="http://www.w3.org/2000/svg" style="background-color: white;">
<path d="M56.0001 13.57C55.7325 10.4202 54.2944 7.485 51.9694 5.34325C49.6444 3.20149 46.6012 2.00866 43.4401 2H20.5601C17.399 2.00866 14.3558 3.20149 12.0308 5.34325C9.70579 7.485 8.26768 10.4202 8.00009 13.57C7.85009 22.05 8.00009 38.92 7.95009 47.49C7.95009 48.0204 8.16081 48.5291 8.53588 48.9042C8.91095 49.2793 9.41966 49.49 9.95009 49.49H15.6101L10.2501 59C9.98488 59.4641 9.9149 60.0146 10.0555 60.5303C10.1962 61.0461 10.536 61.4848 11.0001 61.75C11.4642 62.0152 12.0147 62.0852 12.5304 61.9445C13.0461 61.8039 13.4849 61.4641 13.7501 61L16.6701 55.77H47.3301L50.2501 61C50.5153 61.4641 50.954 61.8039 51.4698 61.9445C51.9855 62.0852 52.536 62.0152 53.0001 61.75C53.4642 61.4848 53.804 61.0461 53.9446 60.5303C54.0853 60.0146 54.0153 59.4641 53.7501 59L48.4101 49.47H54.0701C54.6005 49.47 55.1092 49.2593 55.4843 48.8842C55.8594 48.5091 56.0701 48.0004 56.0701 47.47C56.0001 38.88 56.1701 22.08 56.0001 13.57ZM11.9301 16H30.0001V26.72H11.9301V16ZM19.8601 32.74C26.9401 32.96 26.9401 43.23 19.8601 43.45C12.7801 43.24 12.7801 33 19.8601 32.75V32.74ZM18.9101 51.74L20.1701 49.48H43.8301L45.0901 51.74H18.9101ZM44.1401 43.45C37.0601 43.23 37.0601 32.96 44.1401 32.74C51.2201 33 51.2201 43.24 44.1401 43.46V43.45ZM52.0701 26.71H34.0001V16H52.0701V26.71Z" fill="#0000FF"/>
</svg>
